<svg width="512" height="512" viewBox="0 0 100 100" fill="none" xmlns="http://www.w3.org/2000/svg">
  <defs>
    <linearGradient id="hexGradient" x1="0%" y1="0%" x2="100%" y2="100%">
      <stop offset="0%" stop-color="#A855F7" stop-opacity="1" />
      <stop offset="50%" stop-color="#EC4899" stop-opacity="1" />
      <stop offset="100%" stop-color="#06B6D4" stop-opacity="1" />
    </linearGradient>
    <filter id="glow" x="-50%" y="-50%" width="200%" height="200%">
      <feGaussianBlur stdDeviation="2" result="coloredBlur"/>
      <feMerge>
        <feMergeNode in="coloredBlur"/>
        <feMergeNode in="coloredBlur"/>
        <feMergeNode in="SourceGraphic"/>
      </feMerge>
    </filter>
    <linearGradient id="diamondGradient" x1="0%" y1="0%" x2="100%" y2="100%">
      <stop offset="0%" stop-color="#06B6D4" />
      <stop offset="50%" stop-color="#A855F7" />
      <stop offset="100%" stop-color="#EC4899" />
    </linearGradient>
    <radialGradient id="bgGlow">
      <stop offset="0%" stop-color="#A855F7" stop-opacity="0.3" />
      <stop offset="100%" stop-color="#A855F7" stop-opacity="0" />
    </radialGradient>
  </defs>
  <circle cx="50" cy="50" r="50" fill="#0a0a0f"/>
  <circle cx="50" cy="50" r="45" fill="url(#bgGlow)" />
  <path d="M50 8 L82 27 L82 73 L50 92 L18 73 L18 27 Z" stroke="url(#hexGradient)" stroke-width="3.5" fill="rgba(168, 85, 247, 0.05)" filter="url(#glow)" />
  <path d="M50 15 L75 30 L75 70 L50 85 L25 70 L25 30 Z" stroke="url(#hexGradient)" stroke-width="2" fill="none" opacity="0.4" />
  <path d="M50 32 L42 48 L50 52 Z" fill="#FFFFFF" opacity="0.6" />
  <path d="M50 32 L65 48 L50 68 L35 48 Z" fill="url(#diamondGradient)" filter="url(#glow)" />
  <path d="M50 32 L65 48 L50 52 L35 48 Z" fill="#06B6D4" opacity="0.7" />
  <path d="M50 32 L55 48 L50 52 L45 48 Z" fill="#FFFFFF" opacity="0.4" />
  <circle cx="50" cy="40" r="2" fill="#FFFFFF" opacity="0.8" />
  <circle cx="68" cy="35" r="11" stroke="#EC4899" stroke-width="3" fill="rgba(236, 72, 153, 0.1)" filter="url(#glow)" />
  <circle cx="68" cy="35" r="8" stroke="#EC4899" stroke-width="2" fill="none" opacity="0.5" />
  <line x1="76" y1="43" x2="83" y2="50" stroke="#EC4899" stroke-width="3.5" stroke-linecap="round" filter="url(#glow)" />
  <path d="M 66 32 Q 68 33 67 35" stroke="#FFFFFF" stroke-width="1.5" fill="none" opacity="0.6" />
  <circle cx="25" cy="25" r="2" fill="#A855F7" opacity="0.8" />
  <circle cx="75" cy="75" r="2" fill="#EC4899" opacity="0.8" />
  <circle cx="25" cy="75" r="2" fill="#06B6D4" opacity="0.8" />
  <circle cx="75" cy="25" r="1.5" fill="#FFFFFF" opacity="0.6" />
</svg>
